<?xml version="1.0" encoding="UTF-8" standalone="no"?>
<!-- Created with Inkscape (http://www.inkscape.org/) -->

<svg
   xmlns:dc="http://purl.org/dc/elements/1.1/"
   xmlns:cc="http://creativecommons.org/ns#"
   xmlns:rdf="http://www.w3.org/1999/02/22-rdf-syntax-ns#"
   xmlns:svg="http://www.w3.org/2000/svg"
   xmlns="http://www.w3.org/2000/svg"
   xmlns:sodipodi="http://sodipodi.sourceforge.net/DTD/sodipodi-0.dtd"
   xmlns:inkscape="http://www.inkscape.org/namespaces/inkscape"
   version="1.1"
   id="svg5033"
   xml:space="preserve"
   width="800"
   height="800"
   viewBox="0 0 800 800"
   sodipodi:docname="penguin-clipart-publicdomainvectors.org.svg"
   inkscape:version="0.92.4 (5da689c313, 2019-01-14)"><metadata
     id="metadata5039"><rdf:RDF><cc:Work
         rdf:about=""><dc:format>image/svg+xml</dc:format><dc:type
           rdf:resource="http://purl.org/dc/dcmitype/StillImage" /><dc:title></dc:title></cc:Work></rdf:RDF></metadata><defs
     id="defs5037"><clipPath
       clipPathUnits="userSpaceOnUse"
       id="clipPath5049"><path
         d="M 0,600 H 600 V 0 H 0 Z"
         id="path5047"
         inkscape:connector-curvature="0" /></clipPath></defs><sodipodi:namedview
     pagecolor="#ffffff"
     bordercolor="#666666"
     borderopacity="1"
     objecttolerance="10"
     gridtolerance="10"
     guidetolerance="10"
     inkscape:pageopacity="0"
     inkscape:pageshadow="2"
     inkscape:window-width="1920"
     inkscape:window-height="1018"
     id="namedview5035"
     showgrid="false"
     inkscape:zoom="0.77781056"
     inkscape:cx="559.32203"
     inkscape:cy="288.13559"
     inkscape:window-x="-8"
     inkscape:window-y="-8"
     inkscape:window-maximized="1"
     inkscape:current-layer="g5041" /><g
     id="g5041"
     inkscape:groupmode="layer"
     inkscape:label="penguin-clipart-publicdomainvectors.org"
     transform="matrix(1.3333333,0,0,-1.3333333,0,800)"><g
       id="g5043"
       transform="translate(0,-51)"><g
         id="g5045"
         clip-path="url(#clipPath5049)"><path
           d="m 286.036,557.455 c 0.024,0.919 0.789,1.645 1.705,1.62 0.92,-0.024 1.644,-0.787 1.621,-1.707 -0.025,-0.919 -0.787,-1.643 -1.707,-1.619 -0.918,0.024 -1.642,0.788 -1.619,1.706 m 67.516,-177.511 c 14.23,-20.347 10.831,-166.834 -29.779,-191.826 -5.88,18.686 -14.905,44.473 -14.905,44.473 l -9.453,-45.789 c -54.963,13.019 -58.807,150.205 -48.438,192.403 -12.205,-23.806 -54.425,-68.722 -48.84,-120.835 -34.96,80.245 89.305,212.262 71.878,265.41 31.296,-21.086 166.089,-151.961 138.246,-261.611 -1.737,34.405 -22.377,95.544 -58.709,117.775 m -65.696,183.545 c 3.358,-0.089 6.006,-2.881 5.917,-6.236 -0.085,-3.355 -2.879,-6.005 -6.233,-5.917 -3.355,0.088 -6.006,2.88 -5.916,6.236 0.088,3.355 2.879,6.003 6.232,5.917 m -26.474,-17.641 c -0.645,0.823 -1.262,1.925 -2.286,2.966 -0.956,1.076 -2.033,2.29 -3.207,3.614 -1.269,1.223 -2.644,2.548 -4.097,3.95 -1.582,1.258 -3.142,2.695 -4.902,4.004 -1.78,1.289 -3.581,2.659 -5.548,3.868 -1.905,1.301 -3.939,2.465 -5.997,3.59 -2.016,1.201 -4.156,2.186 -6.215,3.235 -2.127,0.915 -4.152,1.977 -6.221,2.762 -4.066,1.742 -7.984,3.087 -11.353,4.238 -3.387,1.082 -6.237,1.998 -8.262,2.472 -2.037,0.51 -3.202,0.801 -3.202,0.801 0,0.002 1.204,0.034 3.303,-0.136 2.106,-0.188 5.111,-0.495 8.666,-1.215 3.543,-0.737 7.669,-1.758 11.942,-3.313 2.158,-0.722 4.328,-1.633 6.529,-2.567 2.15,-1.047 4.379,-2.03 6.493,-3.241 2.123,-1.197 4.212,-2.449 6.179,-3.838 2.045,-1.261 3.813,-2.862 5.608,-4.275 1.78,-1.436 3.278,-3.093 4.793,-4.532 1.409,-1.556 2.644,-3.113 3.804,-4.514 1.067,-1.484 1.944,-2.915 2.741,-4.155 0.847,-1.206 1.302,-2.44 1.808,-3.361 0.932,-1.899 1.41,-2.992 1.41,-2.992 0,0 -0.756,0.955 -1.986,2.639 M 383.011,426.945 c -41.836,63.479 -40.615,107.465 -62.001,131.042 -30.392,33.504 -59.347,11.666 -72.261,16.056 -12.912,4.393 -48.111,19.812 -62.942,6.303 11.846,-0.889 51.591,-8.878 72.53,-38.524 20.938,-29.645 -15.033,-87.057 -43.198,-140.468 -33.046,-62.669 -45.161,-137.605 -11.146,-176.878 8.853,-10.219 8.989,0.017 8.314,10.64 -1.385,21.75 10.452,75.727 21.94,66.742 0.256,-39.961 6.746,-89.472 47.724,-129.078 6.776,-6.551 3.147,-20.709 -7.582,-26.873 -4.295,-2.465 -4.529,-6.322 1.727,-7.838 1.248,-0.302 7.344,4.315 9.066,4.135 1.723,-0.174 0.934,-5.797 3.145,-5.814 3.364,-0.028 6.678,5.576 11.232,6.002 1.952,0.181 2.794,-5.295 4.971,-5.016 16.848,2.164 -4.342,24.977 7.414,30.275 4.545,2.053 12.828,3.284 17.154,-2.371 3.229,-4.222 -9.414,-23.599 2.107,-25.926 2.232,-0.451 6.919,4.872 9.652,4.668 3.444,-0.257 5.011,-5.966 8.5,-5.779 3.118,0.166 1.531,5.809 4.057,6.375 3.999,0.893 11.444,-2.98 12.046,-0.949 2.552,8.603 -19.332,8.035 -15.603,34.426 27.007,36.207 25.722,98.111 30.173,118.843 22.679,-26.195 19.741,-48.55 18.23,-65.916 -0.785,-9.029 2.125,-18.945 7.705,-7.634 25.325,51.334 40.535,107.218 -22.954,203.557"
           style="fill:#110f0d;fill-opacity:1;fill-rule:nonzero;stroke:none"
           id="path5051"
           inkscape:connector-curvature="0" /></g></g></g></svg>